<svg width="15" height="12" viewBox="0 0 15 12" fill="none" xmlns="http://www.w3.org/2000/svg">
<path d="M12.5714 7.14286V11.4286C12.5714 11.5833 12.5149 11.7173 12.4018 11.8304C12.2887 11.9435 12.1548 12 12 12H8.57143V8.57143H6.28571V12H2.85714C2.70238 12 2.56845 11.9435 2.45536 11.8304C2.34226 11.7173 2.28571 11.5833 2.28571 11.4286V7.14286C2.28571 7.1369 2.28571 7.12798 2.28571 7.11607C2.29167 7.10417 2.29464 7.09524 2.29464 7.08929L7.42857 2.85714L12.5625 7.08929C12.5685 7.10119 12.5714 7.11905 12.5714 7.14286ZM14.5625 6.52679L14.0089 7.1875C13.9613 7.24107 13.8988 7.27381 13.8214 7.28571H13.7946C13.7173 7.28571 13.6548 7.26488 13.6071 7.22321L7.42857 2.07143L1.25 7.22321C1.17857 7.27083 1.10714 7.29167 1.03571 7.28571C0.958333 7.27381 0.895833 7.24107 0.848214 7.1875L0.294643 6.52679C0.247024 6.46726 0.22619 6.39881 0.232143 6.32143C0.238095 6.23809 0.270833 6.17262 0.330357 6.125L6.75 0.776785C6.94048 0.622023 7.16667 0.544642 7.42857 0.544642C7.69048 0.544642 7.91667 0.622023 8.10714 0.776785L10.2857 2.59821V0.857142C10.2857 0.773809 10.3125 0.705357 10.3661 0.651785C10.4196 0.598214 10.4881 0.571428 10.5714 0.571428H12.2857C12.369 0.571428 12.4375 0.598214 12.4911 0.651785C12.5446 0.705357 12.5714 0.773809 12.5714 0.857142V4.5L14.5268 6.125C14.5863 6.17262 14.619 6.23809 14.625 6.32143C14.631 6.39881 14.6101 6.46726 14.5625 6.52679Z" fill="white"/>
</svg>
